<mxfile host="app.diagrams.net" agent="Mozilla/5.0 (Windows NT 10.0; Win64; x64) AppleWebKit/537.36 (KHTML, like Gecko) Chrome/135.0.0.0 Safari/537.36" version="27.0.1">
  <diagram name="Σελίδα-1" id="C3ifGhxdf0wfFsAl2i4l">
    <mxGraphModel dx="2263" dy="2854" grid="0" gridSize="10" guides="1" tooltips="1" connect="1" arrows="1" fold="1" page="0" pageScale="1" pageWidth="827" pageHeight="1169" math="0" shadow="0">
      <root>
        <mxCell id="0" />
        <mxCell id="1" parent="0" />
        <mxCell id="bVLuxsmTnV0-KeocCuYG-1" value="&#xa;&#xa;" style="fillColor=#DEE8FF;strokeColor=none" vertex="1" parent="1">
          <mxGeometry x="-726" y="-1080" width="2280" height="1445" as="geometry" />
        </mxCell>
        <mxCell id="bVLuxsmTnV0-KeocCuYG-2" value="" style="fillColor=#CCD5EB;opacity=50;" vertex="1" parent="1">
          <mxGeometry x="-286" y="-675" width="1790" height="940" as="geometry" />
        </mxCell>
        <mxCell id="bVLuxsmTnV0-KeocCuYG-3" value="" style="fillColor=#CCD5EB;opacity=50;" vertex="1" parent="1">
          <mxGeometry x="-266" y="-435.72" width="1720" height="170" as="geometry" />
        </mxCell>
        <mxCell id="bVLuxsmTnV0-KeocCuYG-4" value="" style="edgeStyle=none;verticalLabelPosition=top;verticalAlign=bottom;labelPosition=left;align=right;entryX=0.056;entryY=0.011;entryDx=0;entryDy=0;entryPerimeter=0;exitX=1.02;exitY=0.014;exitDx=0;exitDy=0;exitPerimeter=0;" edge="1" parent="1" target="bVLuxsmTnV0-KeocCuYG-36">
          <mxGeometry x="110" y="49.5" width="100" height="100" as="geometry">
            <mxPoint x="-595.8" y="-873.9199999999996" as="sourcePoint" />
            <mxPoint x="-491" y="-645" as="targetPoint" />
            <Array as="points" />
          </mxGeometry>
        </mxCell>
        <mxCell id="bVLuxsmTnV0-KeocCuYG-5" value=":AnswerRiddleDialog" style="shadow=1;fillColor=#A2C4C9;strokeColor=none" vertex="1" parent="1">
          <mxGeometry x="-546" y="-975" width="117.5" height="50" as="geometry" />
        </mxCell>
        <mxCell id="bVLuxsmTnV0-KeocCuYG-6" value=":RiddleController" style="shadow=1;fillColor=#A2C4C9;strokeColor=none" vertex="1" parent="1">
          <mxGeometry x="-376" y="-975" width="105" height="50" as="geometry" />
        </mxCell>
        <mxCell id="bVLuxsmTnV0-KeocCuYG-7" value="" style="edgeStyle=none;verticalLabelPosition=top;verticalAlign=bottom;exitX=1.111;exitY=0.039;exitDx=0;exitDy=0;exitPerimeter=0;entryX=0.007;entryY=0.027;entryDx=0;entryDy=0;entryPerimeter=0;" edge="1" parent="1" source="bVLuxsmTnV0-KeocCuYG-36" target="bVLuxsmTnV0-KeocCuYG-104">
          <mxGeometry width="100" height="100" as="geometry">
            <mxPoint x="-471" y="-635" as="sourcePoint" />
            <mxPoint x="-326" y="-630" as="targetPoint" />
            <mxPoint x="4" y="-2" as="offset" />
            <Array as="points" />
          </mxGeometry>
        </mxCell>
        <mxCell id="bVLuxsmTnV0-KeocCuYG-8" value="&lt;font style=&quot;font-size: 9px;&quot;&gt;btnRiddleAnswerInputPress()&lt;/font&gt;" style="edgeLabel;html=1;align=center;verticalAlign=middle;resizable=0;points=[];" connectable="0" vertex="1" parent="bVLuxsmTnV0-KeocCuYG-7">
          <mxGeometry relative="1" as="geometry">
            <mxPoint x="-6" y="-11" as="offset" />
          </mxGeometry>
        </mxCell>
        <mxCell id="bVLuxsmTnV0-KeocCuYG-9" value="" style="edgeStyle=none;verticalLabelPosition=top;verticalAlign=bottom;endArrow=none;startArrow=classic;dashed=1;entryX=-0.009;entryY=0.795;entryDx=0;entryDy=0;entryPerimeter=0;exitX=0.967;exitY=0.154;exitDx=0;exitDy=0;exitPerimeter=0;" edge="1" parent="1" source="bVLuxsmTnV0-KeocCuYG-104" target="bVLuxsmTnV0-KeocCuYG-106">
          <mxGeometry x="220" y="172.25887345679013" width="100" height="100" as="geometry">
            <mxPoint x="-313.5" y="-715" as="sourcePoint" />
            <mxPoint x="-176" y="-715" as="targetPoint" />
            <Array as="points">
              <mxPoint x="-283.5" y="-715" />
              <mxPoint x="-233.5" y="-715" />
            </Array>
          </mxGeometry>
        </mxCell>
        <mxCell id="bVLuxsmTnV0-KeocCuYG-10" value=":AnswerController" style="shadow=1;fillColor=#A2C4C9;strokeColor=none" vertex="1" parent="1">
          <mxGeometry x="-223.4960493827161" y="-975" width="105" height="50" as="geometry" />
        </mxCell>
        <mxCell id="bVLuxsmTnV0-KeocCuYG-11" value=":Answer" style="shadow=1;fillColor=#A2C4C9;strokeColor=none" vertex="1" parent="1">
          <mxGeometry x="-88.61000000000001" y="-975" width="105" height="50" as="geometry" />
        </mxCell>
        <mxCell id="bVLuxsmTnV0-KeocCuYG-12" value=":CorrectAnswerPopUp" style="shadow=1;fillColor=#A2C4C9;strokeColor=none" vertex="1" parent="1">
          <mxGeometry x="169" y="-975" width="140" height="50" as="geometry" />
        </mxCell>
        <mxCell id="bVLuxsmTnV0-KeocCuYG-13" value="" style="edgeStyle=elbowEdgeStyle;elbow=horizontal;verticalLabelPosition=top;verticalAlign=bottom;entryX=0.001;entryY=0.333;entryDx=0;entryDy=0;entryPerimeter=0;exitX=1.071;exitY=0.464;exitDx=0;exitDy=0;exitPerimeter=0;" edge="1" parent="1" source="bVLuxsmTnV0-KeocCuYG-106" target="bVLuxsmTnV0-KeocCuYG-99">
          <mxGeometry width="100" height="100" as="geometry">
            <mxPoint x="-165.99999999999986" y="-799.75" as="sourcePoint" />
            <mxPoint x="-39.459999999999894" y="-765" as="targetPoint" />
            <Array as="points">
              <mxPoint x="-84.35" y="-765" />
            </Array>
            <mxPoint x="7" y="-10" as="offset" />
          </mxGeometry>
        </mxCell>
        <mxCell id="bVLuxsmTnV0-KeocCuYG-14" value="check_answer()" style="edgeLabel;html=1;align=center;verticalAlign=middle;resizable=0;points=[];" connectable="0" vertex="1" parent="bVLuxsmTnV0-KeocCuYG-13">
          <mxGeometry relative="1" as="geometry">
            <mxPoint x="-3" y="-10" as="offset" />
          </mxGeometry>
        </mxCell>
        <mxCell id="bVLuxsmTnV0-KeocCuYG-15" value="" style="edgeStyle=elbowEdgeStyle;elbow=vertical;dashed=1;verticalLabelPosition=bottom;verticalAlign=top;exitX=0.1;exitY=0.898;exitDx=0;exitDy=0;exitPerimeter=0;entryX=1.257;entryY=0.695;entryDx=0;entryDy=0;entryPerimeter=0;" edge="1" parent="1" source="bVLuxsmTnV0-KeocCuYG-99" target="bVLuxsmTnV0-KeocCuYG-106">
          <mxGeometry width="100" height="100" as="geometry">
            <mxPoint x="4" y="-500.45000000000005" as="sourcePoint" />
            <mxPoint x="-166" y="-731" as="targetPoint" />
            <Array as="points">
              <mxPoint x="-86" y="-731" />
              <mxPoint x="-73" y="-462.45000000000005" />
            </Array>
            <mxPoint x="-5" y="-25" as="offset" />
          </mxGeometry>
        </mxCell>
        <mxCell id="bVLuxsmTnV0-KeocCuYG-16" value="getIsCorrect()" style="edgeLabel;html=1;align=center;verticalAlign=middle;resizable=0;points=[];" connectable="0" vertex="1" parent="bVLuxsmTnV0-KeocCuYG-15">
          <mxGeometry relative="1" as="geometry">
            <mxPoint x="3" y="-9" as="offset" />
          </mxGeometry>
        </mxCell>
        <mxCell id="bVLuxsmTnV0-KeocCuYG-17" value="" style="edgeStyle=elbowEdgeStyle;elbow=horizontal;endArrow=none;dashed=1;entryX=0.5;entryY=0;entryDx=0;entryDy=0;" edge="1" parent="1" source="bVLuxsmTnV0-KeocCuYG-5" target="bVLuxsmTnV0-KeocCuYG-105">
          <mxGeometry x="230.00000000000003" y="310" width="100" height="100" as="geometry">
            <mxPoint x="-436" y="-405" as="sourcePoint" />
            <mxPoint x="-487" y="325" as="targetPoint" />
          </mxGeometry>
        </mxCell>
        <mxCell id="bVLuxsmTnV0-KeocCuYG-18" value="Attempt a riddle" style="rounded=1;fontStyle=1;fillColor=#FFD966;strokeColor=none" vertex="1" parent="1">
          <mxGeometry x="-726" y="-1080" width="150" height="30" as="geometry" />
        </mxCell>
        <mxCell id="bVLuxsmTnV0-KeocCuYG-19" value="alt" style="rounded=1;fontStyle=1;fillColor=#FFD966;strokeColor=none" vertex="1" parent="1">
          <mxGeometry x="-286" y="-675" width="50" height="30" as="geometry" />
        </mxCell>
        <mxCell id="bVLuxsmTnV0-KeocCuYG-20" value="Solver&lt;div&gt;&lt;br&gt;&lt;/div&gt;" style="shape=umlActor;verticalLabelPosition=bottom;verticalAlign=top;html=1;outlineConnect=0;" vertex="1" parent="1">
          <mxGeometry x="-616" y="-995" width="30" height="60" as="geometry" />
        </mxCell>
        <mxCell id="bVLuxsmTnV0-KeocCuYG-21" value="" style="edgeStyle=elbowEdgeStyle;elbow=vertical;verticalLabelPosition=top;verticalAlign=bottom;exitX=0.294;exitY=0.076;exitDx=0;exitDy=0;exitPerimeter=0;" edge="1" parent="1" source="bVLuxsmTnV0-KeocCuYG-104">
          <mxGeometry width="100" height="100" as="geometry">
            <mxPoint x="-313.4999999999998" y="-573.871935483871" as="sourcePoint" />
            <mxPoint x="-176" y="-785" as="targetPoint" />
            <mxPoint as="offset" />
            <Array as="points">
              <mxPoint x="-246" y="-785" />
            </Array>
          </mxGeometry>
        </mxCell>
        <mxCell id="bVLuxsmTnV0-KeocCuYG-22" value="answer_riddle()" style="edgeLabel;html=1;align=center;verticalAlign=middle;resizable=0;points=[];" connectable="0" vertex="1" parent="bVLuxsmTnV0-KeocCuYG-21">
          <mxGeometry relative="1" as="geometry">
            <mxPoint x="5" y="-10" as="offset" />
          </mxGeometry>
        </mxCell>
        <mxCell id="bVLuxsmTnV0-KeocCuYG-23" value="[answer correct]" style="text;html=1;align=center;verticalAlign=middle;whiteSpace=wrap;rounded=0;fontStyle=1;fillColor=#FFFFFF;" vertex="1" parent="1">
          <mxGeometry x="1396.45" y="-670" width="100" height="20" as="geometry" />
        </mxCell>
        <mxCell id="bVLuxsmTnV0-KeocCuYG-24" value=":WrongAnswerPopUp" style="shadow=1;fillColor=#A2C4C9;strokeColor=none" vertex="1" parent="1">
          <mxGeometry x="344" y="-975" width="140" height="50" as="geometry" />
        </mxCell>
        <mxCell id="bVLuxsmTnV0-KeocCuYG-25" style="edgeStyle=orthogonalEdgeStyle;rounded=0;orthogonalLoop=1;jettySize=auto;html=1;exitX=0.5;exitY=1;exitDx=0;exitDy=0;" edge="1" parent="1" source="bVLuxsmTnV0-KeocCuYG-19" target="bVLuxsmTnV0-KeocCuYG-19">
          <mxGeometry relative="1" as="geometry" />
        </mxCell>
        <mxCell id="bVLuxsmTnV0-KeocCuYG-26" value=":HintController" style="shadow=1;fillColor=#A2C4C9;strokeColor=none" vertex="1" parent="1">
          <mxGeometry x="504" y="-975" width="110" height="50" as="geometry" />
        </mxCell>
        <mxCell id="bVLuxsmTnV0-KeocCuYG-27" value=":HintPopUp" style="shadow=1;fillColor=#A2C4C9;strokeColor=none" vertex="1" parent="1">
          <mxGeometry x="644" y="-975" width="110" height="50" as="geometry" />
        </mxCell>
        <mxCell id="bVLuxsmTnV0-KeocCuYG-28" value="" style="edgeStyle=none;verticalLabelPosition=top;verticalAlign=bottom;exitX=0.968;exitY=0.081;exitDx=0;exitDy=0;exitPerimeter=0;" edge="1" parent="1" source="bVLuxsmTnV0-KeocCuYG-36">
          <mxGeometry width="100" height="100" as="geometry">
            <mxPoint x="-476" y="-584" as="sourcePoint" />
            <mxPoint x="-325" y="-805" as="targetPoint" />
            <mxPoint x="1" y="-11" as="offset" />
            <Array as="points" />
          </mxGeometry>
        </mxCell>
        <mxCell id="bVLuxsmTnV0-KeocCuYG-29" value="btnEnterPress()" style="edgeLabel;html=1;align=center;verticalAlign=middle;resizable=0;points=[];" connectable="0" vertex="1" parent="bVLuxsmTnV0-KeocCuYG-28">
          <mxGeometry relative="1" as="geometry">
            <mxPoint x="-1" y="-10" as="offset" />
          </mxGeometry>
        </mxCell>
        <mxCell id="bVLuxsmTnV0-KeocCuYG-30" value=":FinalCongratulationsUI" style="shadow=1;fillColor=#A2C4C9;strokeColor=none" vertex="1" parent="1">
          <mxGeometry x="794" y="-975" width="130" height="60" as="geometry" />
        </mxCell>
        <mxCell id="bVLuxsmTnV0-KeocCuYG-31" value=":StoryControler" style="shadow=1;fillColor=#A2C4C9;strokeColor=none" vertex="1" parent="1">
          <mxGeometry x="964" y="-975" width="130" height="60" as="geometry" />
        </mxCell>
        <mxCell id="bVLuxsmTnV0-KeocCuYG-32" value=":StoryPanelUI" style="shadow=1;fillColor=#A2C4C9;strokeColor=none" vertex="1" parent="1">
          <mxGeometry x="1175.04" y="-975" width="130" height="60" as="geometry" />
        </mxCell>
        <mxCell id="bVLuxsmTnV0-KeocCuYG-33" value=":Riddle" style="shadow=1;fillColor=#A2C4C9;strokeColor=none" vertex="1" parent="1">
          <mxGeometry x="46.5" y="-975" width="105" height="50" as="geometry" />
        </mxCell>
        <mxCell id="bVLuxsmTnV0-KeocCuYG-34" style="edgeStyle=orthogonalEdgeStyle;rounded=0;orthogonalLoop=1;jettySize=auto;html=1;exitX=0.5;exitY=1;exitDx=0;exitDy=0;" edge="1" parent="1" source="bVLuxsmTnV0-KeocCuYG-33" target="bVLuxsmTnV0-KeocCuYG-33">
          <mxGeometry relative="1" as="geometry" />
        </mxCell>
        <mxCell id="bVLuxsmTnV0-KeocCuYG-35" value="" style="edgeStyle=elbowEdgeStyle;elbow=horizontal;endArrow=none;dashed=1;entryX=0.051;entryY=1.001;entryDx=0;entryDy=0;entryPerimeter=0;" edge="1" parent="1" target="bVLuxsmTnV0-KeocCuYG-1">
          <mxGeometry x="230.00000000000003" y="310" width="100" height="100" as="geometry">
            <mxPoint x="-601.2" y="-935" as="sourcePoint" />
            <mxPoint x="-605.47" y="310.48" as="targetPoint" />
          </mxGeometry>
        </mxCell>
        <mxCell id="bVLuxsmTnV0-KeocCuYG-36" value="" style="fillColor=#CC4125;strokeColor=#660000" vertex="1" parent="1">
          <mxGeometry x="-492.25" y="-885" width="10" height="990" as="geometry" />
        </mxCell>
        <mxCell id="bVLuxsmTnV0-KeocCuYG-37" value="" style="fillColor=#CCD5EB;opacity=50;" vertex="1" parent="1">
          <mxGeometry x="294" y="-175" width="940" height="380" as="geometry" />
        </mxCell>
        <mxCell id="bVLuxsmTnV0-KeocCuYG-38" value="" style="endArrow=classic;html=1;rounded=0;fontSize=12;startSize=8;endSize=8;curved=1;exitX=0.913;exitY=0.806;exitDx=0;exitDy=0;exitPerimeter=0;entryX=0.1;entryY=0.638;entryDx=0;entryDy=0;entryPerimeter=0;" edge="1" parent="1" source="bVLuxsmTnV0-KeocCuYG-80" target="bVLuxsmTnV0-KeocCuYG-89">
          <mxGeometry width="50" height="50" relative="1" as="geometry">
            <mxPoint x="465.48" y="67.74000000000001" as="sourcePoint" />
            <mxPoint x="614" y="65" as="targetPoint" />
          </mxGeometry>
        </mxCell>
        <mxCell id="bVLuxsmTnV0-KeocCuYG-39" value="&lt;font style=&quot;font-size: 9px;&quot;&gt;show_hint_message()&lt;/font&gt;" style="edgeLabel;html=1;align=center;verticalAlign=middle;resizable=0;points=[];" connectable="0" vertex="1" parent="bVLuxsmTnV0-KeocCuYG-38">
          <mxGeometry x="-0.295" relative="1" as="geometry">
            <mxPoint x="11" y="-12" as="offset" />
          </mxGeometry>
        </mxCell>
        <mxCell id="bVLuxsmTnV0-KeocCuYG-40" value="" style="endArrow=classic;html=1;rounded=0;fontSize=12;startSize=8;endSize=8;curved=1;entryX=0;entryY=0.75;entryDx=0;entryDy=0;exitX=0.892;exitY=0.802;exitDx=0;exitDy=0;exitPerimeter=0;" edge="1" parent="1" target="bVLuxsmTnV0-KeocCuYG-80">
          <mxGeometry width="50" height="50" relative="1" as="geometry">
            <mxPoint x="418.9999999999999" y="45.539999999999964" as="sourcePoint" />
            <mxPoint x="544.2199999999999" y="45.16000000000031" as="targetPoint" />
            <Array as="points">
              <mxPoint x="465.08000000000004" y="45" />
            </Array>
          </mxGeometry>
        </mxCell>
        <mxCell id="bVLuxsmTnV0-KeocCuYG-41" value="btnTryWithHintPress()" style="edgeLabel;html=1;align=center;verticalAlign=middle;resizable=0;points=[];" connectable="0" vertex="1" parent="bVLuxsmTnV0-KeocCuYG-40">
          <mxGeometry x="0.0256" y="1" relative="1" as="geometry">
            <mxPoint x="1" y="-14" as="offset" />
          </mxGeometry>
        </mxCell>
        <mxCell id="bVLuxsmTnV0-KeocCuYG-42" value="" style="endArrow=classic;html=1;rounded=0;fontSize=12;startSize=8;endSize=8;curved=1;entryX=0.11;entryY=0.15;entryDx=0;entryDy=0;entryPerimeter=0;" edge="1" parent="1" target="bVLuxsmTnV0-KeocCuYG-80">
          <mxGeometry width="50" height="50" relative="1" as="geometry">
            <mxPoint x="419" y="-115" as="sourcePoint" />
            <mxPoint x="538" y="-115" as="targetPoint" />
            <Array as="points">
              <mxPoint x="439" y="-115" />
              <mxPoint x="494" y="-115" />
            </Array>
          </mxGeometry>
        </mxCell>
        <mxCell id="bVLuxsmTnV0-KeocCuYG-43" value="btnTryWithoutHintPress()" style="edgeLabel;html=1;align=center;verticalAlign=middle;resizable=0;points=[];" connectable="0" vertex="1" parent="bVLuxsmTnV0-KeocCuYG-42">
          <mxGeometry x="0.042" y="1" relative="1" as="geometry">
            <mxPoint x="-7" y="-9" as="offset" />
          </mxGeometry>
        </mxCell>
        <mxCell id="bVLuxsmTnV0-KeocCuYG-44" value="alt" style="rounded=1;fontStyle=1;fillColor=#FFD966;strokeColor=none" vertex="1" parent="1">
          <mxGeometry x="304" y="-165" width="50" height="30" as="geometry" />
        </mxCell>
        <mxCell id="bVLuxsmTnV0-KeocCuYG-45" value="" style="edgeStyle=none;verticalLabelPosition=top;verticalAlign=bottom;endArrow=none;startArrow=classic;dashed=1;entryX=-0.033;entryY=0.834;entryDx=0;entryDy=0;exitX=0.973;exitY=0.873;exitDx=0;exitDy=0;exitPerimeter=0;entryPerimeter=0;" edge="1" parent="1" source="bVLuxsmTnV0-KeocCuYG-80" target="bVLuxsmTnV0-KeocCuYG-89">
          <mxGeometry x="220" y="172.25887345679007" width="100" height="100" as="geometry">
            <mxPoint x="374" y="134" as="sourcePoint" />
            <mxPoint x="1403" y="147" as="targetPoint" />
            <Array as="points" />
          </mxGeometry>
        </mxCell>
        <mxCell id="bVLuxsmTnV0-KeocCuYG-46" value="" style="endArrow=none;dashed=1;html=1;dashPattern=1 3;strokeWidth=2;rounded=0;entryX=1.003;entryY=0.44;entryDx=0;entryDy=0;entryPerimeter=0;" edge="1" parent="1" target="bVLuxsmTnV0-KeocCuYG-37">
          <mxGeometry width="50" height="50" relative="1" as="geometry">
            <mxPoint x="294" y="-12" as="sourcePoint" />
            <mxPoint x="1257" y="72.5" as="targetPoint" />
          </mxGeometry>
        </mxCell>
        <mxCell id="bVLuxsmTnV0-KeocCuYG-47" value="" style="endArrow=classic;html=1;rounded=0;fontSize=12;startSize=8;endSize=8;curved=1;entryX=0.256;entryY=0.112;entryDx=0;entryDy=0;entryPerimeter=0;exitX=0.746;exitY=0.721;exitDx=0;exitDy=0;exitPerimeter=0;" edge="1" parent="1" source="bVLuxsmTnV0-KeocCuYG-104" target="bVLuxsmTnV0-KeocCuYG-79">
          <mxGeometry width="50" height="50" relative="1" as="geometry">
            <mxPoint x="-286" y="-135" as="sourcePoint" />
            <mxPoint x="296.67999999999995" y="-132.80000000000007" as="targetPoint" />
            <Array as="points" />
          </mxGeometry>
        </mxCell>
        <mxCell id="bVLuxsmTnV0-KeocCuYG-48" value="show_fail_message()" style="edgeLabel;html=1;align=center;verticalAlign=middle;resizable=0;points=[];" connectable="0" vertex="1" parent="bVLuxsmTnV0-KeocCuYG-47">
          <mxGeometry x="0.0329" y="1" relative="1" as="geometry">
            <mxPoint x="-27" y="-12" as="offset" />
          </mxGeometry>
        </mxCell>
        <mxCell id="bVLuxsmTnV0-KeocCuYG-49" value="" style="edgeStyle=none;verticalLabelPosition=top;verticalAlign=bottom;endArrow=none;startArrow=classic;dashed=1;entryX=0.4;entryY=0.938;entryDx=0;entryDy=0;entryPerimeter=0;exitX=0.783;exitY=0.718;exitDx=0;exitDy=0;exitPerimeter=0;" edge="1" parent="1" target="bVLuxsmTnV0-KeocCuYG-80">
          <mxGeometry x="220" y="172.25887345679007" width="100" height="100" as="geometry">
            <mxPoint x="-482.25" y="95" as="sourcePoint" />
            <mxPoint x="546.9599999999996" y="108.26999999999998" as="targetPoint" />
            <Array as="points" />
          </mxGeometry>
        </mxCell>
        <mxCell id="bVLuxsmTnV0-KeocCuYG-50" value="" style="edgeStyle=none;endArrow=none;dashed=1;entryX=0.348;entryY=1.005;entryDx=0;entryDy=0;entryPerimeter=0;" edge="1" parent="1" target="bVLuxsmTnV0-KeocCuYG-58">
          <mxGeometry x="614.4878472222224" y="174.99999999999997" width="100" height="100" as="geometry">
            <mxPoint x="99" y="-925" as="sourcePoint" />
            <mxPoint x="99" y="372" as="targetPoint" />
          </mxGeometry>
        </mxCell>
        <mxCell id="bVLuxsmTnV0-KeocCuYG-51" value="" style="edgeStyle=none;verticalLabelPosition=top;verticalAlign=bottom;endArrow=none;startArrow=classic;dashed=1;entryX=-0.077;entryY=0.327;entryDx=0;entryDy=0;entryPerimeter=0;exitX=0.625;exitY=0.827;exitDx=0;exitDy=0;exitPerimeter=0;" edge="1" parent="1" source="bVLuxsmTnV0-KeocCuYG-36" target="bVLuxsmTnV0-KeocCuYG-80">
          <mxGeometry x="220" y="172.25887345679007" width="100" height="100" as="geometry">
            <mxPoint x="-466" y="-85" as="sourcePoint" />
            <mxPoint x="434" y="-15" as="targetPoint" />
            <Array as="points" />
          </mxGeometry>
        </mxCell>
        <mxCell id="bVLuxsmTnV0-KeocCuYG-52" value="[Hint Accepted]" style="text;html=1;align=center;verticalAlign=middle;resizable=0;points=[];autosize=1;strokeColor=none;fillColor=#FFFFFF;fontStyle=1" vertex="1" parent="1">
          <mxGeometry x="1134" y="5" width="100" height="30" as="geometry" />
        </mxCell>
        <mxCell id="bVLuxsmTnV0-KeocCuYG-53" value="" style="edgeStyle=none;endArrow=none;dashed=1;entryX=0.686;entryY=0.996;entryDx=0;entryDy=0;entryPerimeter=0;exitX=0.5;exitY=1;exitDx=0;exitDy=0;" edge="1" parent="1" source="bVLuxsmTnV0-KeocCuYG-31" target="bVLuxsmTnV0-KeocCuYG-69">
          <mxGeometry x="727.3350694444446" y="165" width="100" height="100" as="geometry">
            <mxPoint x="940.5" y="-695" as="sourcePoint" />
            <mxPoint x="942" y="491" as="targetPoint" />
          </mxGeometry>
        </mxCell>
        <mxCell id="bVLuxsmTnV0-KeocCuYG-54" value="" style="edgeStyle=none;endArrow=none;dashed=1;entryX=0.686;entryY=0.996;entryDx=0;entryDy=0;entryPerimeter=0;exitX=0.5;exitY=1;exitDx=0;exitDy=0;" edge="1" parent="1" source="bVLuxsmTnV0-KeocCuYG-32" target="bVLuxsmTnV0-KeocCuYG-73">
          <mxGeometry x="727.3350694444446" y="165" width="100" height="100" as="geometry">
            <mxPoint x="1128.17" y="-695" as="sourcePoint" />
            <mxPoint x="1129.67" y="491" as="targetPoint" />
          </mxGeometry>
        </mxCell>
        <mxCell id="bVLuxsmTnV0-KeocCuYG-55" value="" style="edgeStyle=none;endArrow=none;dashed=1;entryX=0.581;entryY=1;entryDx=0;entryDy=0;entryPerimeter=0;exitX=0.5;exitY=1;exitDx=0;exitDy=0;" edge="1" parent="1" source="bVLuxsmTnV0-KeocCuYG-30" target="bVLuxsmTnV0-KeocCuYG-63">
          <mxGeometry x="727.3350694444446" y="165" width="100" height="100" as="geometry">
            <mxPoint x="773" y="-695" as="sourcePoint" />
            <mxPoint x="754" y="495" as="targetPoint" />
          </mxGeometry>
        </mxCell>
        <mxCell id="bVLuxsmTnV0-KeocCuYG-56" value="" style="edgeStyle=none;endArrow=none;dashed=1;exitX=0.5;exitY=1;exitDx=0;exitDy=0;entryX=0.5;entryY=0;entryDx=0;entryDy=0;" edge="1" parent="1" source="bVLuxsmTnV0-KeocCuYG-26" target="bVLuxsmTnV0-KeocCuYG-90">
          <mxGeometry x="727.3350694444446" y="165" width="100" height="100" as="geometry">
            <mxPoint x="324" y="-695" as="sourcePoint" />
            <mxPoint x="559" y="355" as="targetPoint" />
          </mxGeometry>
        </mxCell>
        <mxCell id="bVLuxsmTnV0-KeocCuYG-57" value="" style="edgeStyle=none;endArrow=none;dashed=1;exitX=0.5;exitY=1;exitDx=0;exitDy=0;entryX=0.5;entryY=0;entryDx=0;entryDy=0;" edge="1" parent="1" source="bVLuxsmTnV0-KeocCuYG-24" target="bVLuxsmTnV0-KeocCuYG-91">
          <mxGeometry x="727.3350694444446" y="165" width="100" height="100" as="geometry">
            <mxPoint x="164" y="-695" as="sourcePoint" />
            <mxPoint x="164" y="-415" as="targetPoint" />
          </mxGeometry>
        </mxCell>
        <mxCell id="bVLuxsmTnV0-KeocCuYG-58" value="" style="fillColor=#CC4125;strokeColor=#660000" vertex="1" parent="1">
          <mxGeometry x="94" y="-605" width="10" height="120" as="geometry" />
        </mxCell>
        <mxCell id="bVLuxsmTnV0-KeocCuYG-59" value="" style="endArrow=classic;html=1;rounded=0;fontSize=12;startSize=8;endSize=8;curved=1;exitX=1.15;exitY=0.555;exitDx=0;exitDy=0;exitPerimeter=0;" edge="1" parent="1">
          <mxGeometry width="50" height="50" relative="1" as="geometry">
            <mxPoint x="-313.5" y="-311.1600000000002" as="sourcePoint" />
            <mxPoint x="252.5" y="-312.36" as="targetPoint" />
            <Array as="points">
              <mxPoint x="82" y="-312.86" />
            </Array>
          </mxGeometry>
        </mxCell>
        <mxCell id="bVLuxsmTnV0-KeocCuYG-60" value="show_success_message()" style="edgeLabel;html=1;align=center;verticalAlign=middle;resizable=0;points=[];" connectable="0" vertex="1" parent="bVLuxsmTnV0-KeocCuYG-59">
          <mxGeometry x="0.0727" y="-1" relative="1" as="geometry">
            <mxPoint x="-96" y="-11" as="offset" />
          </mxGeometry>
        </mxCell>
        <mxCell id="bVLuxsmTnV0-KeocCuYG-61" value="is_final_riddle()" style="edgeStyle=elbowEdgeStyle;elbow=vertical;verticalLabelPosition=top;verticalAlign=bottom;exitX=1.191;exitY=0.286;exitDx=0;exitDy=0;exitPerimeter=0;entryX=-0.212;entryY=0.245;entryDx=0;entryDy=0;entryPerimeter=0;" edge="1" parent="1" source="bVLuxsmTnV0-KeocCuYG-104" target="bVLuxsmTnV0-KeocCuYG-58">
          <mxGeometry x="10" y="-2.1399999999999864" width="100" height="100" as="geometry">
            <mxPoint x="-303.5" y="-577.14" as="sourcePoint" />
            <mxPoint x="84" y="-576" as="targetPoint" />
            <mxPoint as="offset" />
            <Array as="points">
              <mxPoint x="-228.5" y="-576.14" />
            </Array>
          </mxGeometry>
        </mxCell>
        <mxCell id="bVLuxsmTnV0-KeocCuYG-62" value="alt" style="rounded=1;fontStyle=1;fillColor=#FFD966;strokeColor=none" vertex="1" parent="1">
          <mxGeometry x="-256" y="-425" width="50" height="30" as="geometry" />
        </mxCell>
        <mxCell id="bVLuxsmTnV0-KeocCuYG-63" value="" style="fillColor=#CC4125;strokeColor=#660000" vertex="1" parent="1">
          <mxGeometry x="852.96" y="-415" width="12.08" height="50" as="geometry" />
        </mxCell>
        <mxCell id="bVLuxsmTnV0-KeocCuYG-64" value="&lt;b&gt;[answer wrong]&lt;/b&gt;" style="text;html=1;align=center;verticalAlign=middle;whiteSpace=wrap;rounded=0;fillColor=#FFFFFF;" vertex="1" parent="1">
          <mxGeometry x="1386.41" y="-227.14" width="107.55" height="20" as="geometry" />
        </mxCell>
        <mxCell id="bVLuxsmTnV0-KeocCuYG-65" value="" style="endArrow=none;dashed=1;html=1;dashPattern=1 3;strokeWidth=2;rounded=0;exitX=-0.001;exitY=0.452;exitDx=0;exitDy=0;exitPerimeter=0;entryX=1;entryY=0.467;entryDx=0;entryDy=0;entryPerimeter=0;" edge="1" parent="1" target="bVLuxsmTnV0-KeocCuYG-2">
          <mxGeometry width="50" height="50" relative="1" as="geometry">
            <mxPoint x="-287.78999999999996" y="-230.55999999999983" as="sourcePoint" />
            <mxPoint x="1464" y="-237.14" as="targetPoint" />
          </mxGeometry>
        </mxCell>
        <mxCell id="bVLuxsmTnV0-KeocCuYG-66" value="" style="edgeStyle=none;verticalLabelPosition=top;verticalAlign=bottom;endArrow=none;startArrow=classic;dashed=1;entryX=0;entryY=1;entryDx=0;entryDy=0;exitX=0.917;exitY=0.334;exitDx=0;exitDy=0;exitPerimeter=0;" edge="1" parent="1" source="bVLuxsmTnV0-KeocCuYG-104">
          <mxGeometry x="220" y="170.11887345679014" width="100" height="100" as="geometry">
            <mxPoint x="-314.47999999999956" y="-527.14" as="sourcePoint" />
            <mxPoint x="94" y="-526.66" as="targetPoint" />
            <Array as="points">
              <mxPoint x="-13.5" y="-526.66" />
              <mxPoint x="36.5" y="-526.66" />
            </Array>
          </mxGeometry>
        </mxCell>
        <mxCell id="bVLuxsmTnV0-KeocCuYG-67" value="" style="endArrow=none;dashed=1;html=1;dashPattern=1 3;strokeWidth=2;rounded=0;exitX=0.003;exitY=0.434;exitDx=0;exitDy=0;entryX=0.998;entryY=0.431;entryDx=0;entryDy=0;entryPerimeter=0;exitPerimeter=0;" edge="1" parent="1" source="bVLuxsmTnV0-KeocCuYG-3" target="bVLuxsmTnV0-KeocCuYG-3">
          <mxGeometry width="50" height="50" relative="1" as="geometry">
            <mxPoint x="-466" y="-475.25999999999965" as="sourcePoint" />
            <mxPoint x="1324" y="-477.13999999999976" as="targetPoint" />
          </mxGeometry>
        </mxCell>
        <mxCell id="bVLuxsmTnV0-KeocCuYG-68" value="[Hint Declined]" style="text;html=1;align=center;verticalAlign=middle;resizable=0;points=[];autosize=1;strokeColor=none;fillColor=#FFFFFF;fontStyle=1" vertex="1" parent="1">
          <mxGeometry x="1124" y="-167.14" width="100" height="30" as="geometry" />
        </mxCell>
        <mxCell id="bVLuxsmTnV0-KeocCuYG-69" value="" style="fillColor=#CC4125;strokeColor=#660000" vertex="1" parent="1">
          <mxGeometry x="1022.96" y="-312.86" width="12.08" height="37.86" as="geometry" />
        </mxCell>
        <mxCell id="bVLuxsmTnV0-KeocCuYG-70" value="[final Riddle]" style="text;html=1;align=center;verticalAlign=middle;resizable=0;points=[];autosize=1;strokeColor=none;fillColor=#FFFFFF;fontStyle=1" vertex="1" parent="1">
          <mxGeometry x="1353.96" y="-425" width="90" height="30" as="geometry" />
        </mxCell>
        <mxCell id="bVLuxsmTnV0-KeocCuYG-71" value="&lt;b&gt;[not final riddle]&lt;/b&gt;" style="text;html=1;align=center;verticalAlign=middle;whiteSpace=wrap;rounded=0;fillColor=#FFFFFF;" vertex="1" parent="1">
          <mxGeometry x="1314.00375" y="-350.71142857142854" width="129.95624999999998" height="21.428571428571427" as="geometry" />
        </mxCell>
        <mxCell id="bVLuxsmTnV0-KeocCuYG-72" value="" style="endArrow=classic;html=1;rounded=0;fontSize=12;startSize=8;endSize=8;curved=1;exitX=0.813;exitY=0.581;exitDx=0;exitDy=0;exitPerimeter=0;entryX=-0.197;entryY=0.379;entryDx=0;entryDy=0;entryPerimeter=0;" edge="1" parent="1">
          <mxGeometry width="50" height="50" relative="1" as="geometry">
            <mxPoint x="1035.0404166666676" y="-281.51142857142884" as="sourcePoint" />
            <mxPoint x="1233.8802400000004" y="-279.93787999999984" as="targetPoint" />
            <Array as="points" />
          </mxGeometry>
        </mxCell>
        <mxCell id="bVLuxsmTnV0-KeocCuYG-73" value="" style="fillColor=#CC4125;strokeColor=#660000" vertex="1" parent="1">
          <mxGeometry x="1234" y="-302.86" width="12.08" height="37.86" as="geometry" />
        </mxCell>
        <mxCell id="bVLuxsmTnV0-KeocCuYG-74" value="" style="endArrow=classic;html=1;rounded=0;fontSize=12;startSize=8;endSize=8;curved=1;entryX=0.021;entryY=0.6;entryDx=0;entryDy=0;entryPerimeter=0;" edge="1" parent="1" target="bVLuxsmTnV0-KeocCuYG-63">
          <mxGeometry width="50" height="50" relative="1" as="geometry">
            <mxPoint x="-315" y="-385" as="sourcePoint" />
            <mxPoint x="169" y="-381.25" as="targetPoint" />
            <Array as="points">
              <mxPoint x="84" y="-380.75" />
            </Array>
          </mxGeometry>
        </mxCell>
        <mxCell id="bVLuxsmTnV0-KeocCuYG-75" value="show_final_message()" style="edgeLabel;html=1;align=center;verticalAlign=middle;resizable=0;points=[];" connectable="0" vertex="1" parent="bVLuxsmTnV0-KeocCuYG-74">
          <mxGeometry x="-0.132" y="-2" relative="1" as="geometry">
            <mxPoint x="-2" y="-17" as="offset" />
          </mxGeometry>
        </mxCell>
        <mxCell id="bVLuxsmTnV0-KeocCuYG-76" value="" style="endArrow=classic;html=1;rounded=0;fontSize=12;startSize=8;endSize=8;curved=1;entryX=0;entryY=0.5;entryDx=0;entryDy=0;exitX=1;exitY=0.5;exitDx=0;exitDy=0;" edge="1" parent="1" source="bVLuxsmTnV0-KeocCuYG-94" target="bVLuxsmTnV0-KeocCuYG-69">
          <mxGeometry width="50" height="50" relative="1" as="geometry">
            <mxPoint x="274" y="-295" as="sourcePoint" />
            <mxPoint x="820" y="-302.86" as="targetPoint" />
            <Array as="points" />
          </mxGeometry>
        </mxCell>
        <mxCell id="bVLuxsmTnV0-KeocCuYG-77" value="browse_panels()" style="edgeLabel;html=1;align=center;verticalAlign=middle;resizable=0;points=[];" connectable="0" vertex="1" parent="bVLuxsmTnV0-KeocCuYG-76">
          <mxGeometry x="0.0727" y="-1" relative="1" as="geometry">
            <mxPoint x="471" y="-4" as="offset" />
          </mxGeometry>
        </mxCell>
        <mxCell id="bVLuxsmTnV0-KeocCuYG-78" value="btnContinueStoryPress()" style="edgeLabel;html=1;align=center;verticalAlign=middle;resizable=0;points=[];" connectable="0" vertex="1" parent="bVLuxsmTnV0-KeocCuYG-76">
          <mxGeometry x="0.2816" y="1" relative="1" as="geometry">
            <mxPoint x="26" y="-16" as="offset" />
          </mxGeometry>
        </mxCell>
        <mxCell id="bVLuxsmTnV0-KeocCuYG-79" value="" style="fillColor=#CC4125;strokeColor=#660000" vertex="1" parent="1">
          <mxGeometry x="409" y="-155" width="10" height="230" as="geometry" />
        </mxCell>
        <mxCell id="bVLuxsmTnV0-KeocCuYG-80" value="" style="fillColor=#CC4125;strokeColor=#660000" vertex="1" parent="1">
          <mxGeometry x="554" y="-155" width="10" height="270" as="geometry" />
        </mxCell>
        <mxCell id="bVLuxsmTnV0-KeocCuYG-81" value="" style="edgeStyle=none;endArrow=none;dashed=1;" edge="1" parent="1" source="bVLuxsmTnV0-KeocCuYG-73">
          <mxGeometry x="727.3350694444446" y="165" width="100" height="100" as="geometry">
            <mxPoint x="1240" y="-265" as="sourcePoint" />
            <mxPoint x="1240" y="275" as="targetPoint" />
            <Array as="points">
              <mxPoint x="1244" y="15" />
            </Array>
          </mxGeometry>
        </mxCell>
        <mxCell id="bVLuxsmTnV0-KeocCuYG-82" value=":StoryPanelUI" style="shadow=1;fillColor=#A2C4C9;strokeColor=none" vertex="1" parent="1">
          <mxGeometry x="1175.04" y="285" width="130" height="60" as="geometry" />
        </mxCell>
        <mxCell id="bVLuxsmTnV0-KeocCuYG-83" value="" style="edgeStyle=none;endArrow=none;dashed=1;entryX=0.5;entryY=0;entryDx=0;entryDy=0;" edge="1" parent="1" source="bVLuxsmTnV0-KeocCuYG-69" target="bVLuxsmTnV0-KeocCuYG-84">
          <mxGeometry x="727.3350694444446" y="165" width="100" height="100" as="geometry">
            <mxPoint x="1029" y="-275" as="sourcePoint" />
            <mxPoint x="1033" y="368" as="targetPoint" />
          </mxGeometry>
        </mxCell>
        <mxCell id="bVLuxsmTnV0-KeocCuYG-84" value=":StoryControler" style="shadow=1;fillColor=#A2C4C9;strokeColor=none" vertex="1" parent="1">
          <mxGeometry x="964" y="285" width="130" height="60" as="geometry" />
        </mxCell>
        <mxCell id="bVLuxsmTnV0-KeocCuYG-85" value="" style="edgeStyle=none;endArrow=none;dashed=1;entryX=0.63;entryY=-0.036;entryDx=0;entryDy=0;entryPerimeter=0;" edge="1" parent="1" source="bVLuxsmTnV0-KeocCuYG-63" target="bVLuxsmTnV0-KeocCuYG-86">
          <mxGeometry x="727.3350694444446" y="165" width="100" height="100" as="geometry">
            <mxPoint x="859" y="-365" as="sourcePoint" />
            <mxPoint x="864" y="366" as="targetPoint" />
          </mxGeometry>
        </mxCell>
        <mxCell id="bVLuxsmTnV0-KeocCuYG-86" value=":FinalCongratulationsUI" style="shadow=1;fillColor=#A2C4C9;strokeColor=none" vertex="1" parent="1">
          <mxGeometry x="784" y="285" width="130" height="60" as="geometry" />
        </mxCell>
        <mxCell id="bVLuxsmTnV0-KeocCuYG-87" value="" style="edgeStyle=none;endArrow=none;dashed=1;exitX=0.5;exitY=1;exitDx=0;exitDy=0;entryX=0.5;entryY=0;entryDx=0;entryDy=0;" edge="1" parent="1" source="bVLuxsmTnV0-KeocCuYG-27" target="bVLuxsmTnV0-KeocCuYG-88">
          <mxGeometry x="727.3350694444446" y="165" width="100" height="100" as="geometry">
            <mxPoint x="699" y="-925" as="sourcePoint" />
            <mxPoint x="698" y="368" as="targetPoint" />
          </mxGeometry>
        </mxCell>
        <mxCell id="bVLuxsmTnV0-KeocCuYG-88" value=":HintPopUp" style="shadow=1;fillColor=#A2C4C9;strokeColor=none" vertex="1" parent="1">
          <mxGeometry x="644" y="290" width="110" height="50" as="geometry" />
        </mxCell>
        <mxCell id="bVLuxsmTnV0-KeocCuYG-89" value="" style="fillColor=#CC4125;strokeColor=#660000" vertex="1" parent="1">
          <mxGeometry x="694" y="5" width="10" height="90" as="geometry" />
        </mxCell>
        <mxCell id="bVLuxsmTnV0-KeocCuYG-90" value=":HintController" style="shadow=1;fillColor=#A2C4C9;strokeColor=none" vertex="1" parent="1">
          <mxGeometry x="504" y="290" width="110" height="50" as="geometry" />
        </mxCell>
        <mxCell id="bVLuxsmTnV0-KeocCuYG-91" value=":WrongAnswerPopUp" style="shadow=1;fillColor=#A2C4C9;strokeColor=none" vertex="1" parent="1">
          <mxGeometry x="344" y="285" width="140" height="50" as="geometry" />
        </mxCell>
        <mxCell id="bVLuxsmTnV0-KeocCuYG-92" value="" style="edgeStyle=none;endArrow=none;dashed=1;exitX=0.657;exitY=0.957;exitDx=0;exitDy=0;exitPerimeter=0;entryX=0.616;entryY=0.08;entryDx=0;entryDy=0;entryPerimeter=0;" edge="1" parent="1" source="bVLuxsmTnV0-KeocCuYG-12" target="bVLuxsmTnV0-KeocCuYG-93">
          <mxGeometry x="727.3350694444446" y="165" width="100" height="100" as="geometry">
            <mxPoint x="261" y="-927" as="sourcePoint" />
            <mxPoint x="250" y="366" as="targetPoint" />
          </mxGeometry>
        </mxCell>
        <mxCell id="bVLuxsmTnV0-KeocCuYG-93" value=":CorrectAnswerPopUp" style="shadow=1;fillColor=#A2C4C9;strokeColor=none" vertex="1" parent="1">
          <mxGeometry x="169" y="285" width="140" height="50" as="geometry" />
        </mxCell>
        <mxCell id="bVLuxsmTnV0-KeocCuYG-94" value="" style="fillColor=#CC4125;strokeColor=#660000" vertex="1" parent="1">
          <mxGeometry x="254" y="-315.72" width="10" height="50" as="geometry" />
        </mxCell>
        <mxCell id="bVLuxsmTnV0-KeocCuYG-95" value="" style="edgeStyle=none;endArrow=none;dashed=1;entryX=0.5;entryY=0;entryDx=0;entryDy=0;" edge="1" parent="1" source="bVLuxsmTnV0-KeocCuYG-58" target="bVLuxsmTnV0-KeocCuYG-96">
          <mxGeometry x="614.4878472222224" y="174.99999999999997" width="100" height="100" as="geometry">
            <mxPoint x="99" y="-485" as="sourcePoint" />
            <mxPoint x="99" y="372" as="targetPoint" />
          </mxGeometry>
        </mxCell>
        <mxCell id="bVLuxsmTnV0-KeocCuYG-96" value=":Riddle" style="shadow=1;fillColor=#A2C4C9;strokeColor=none" vertex="1" parent="1">
          <mxGeometry x="46.5" y="285" width="105" height="50" as="geometry" />
        </mxCell>
        <mxCell id="bVLuxsmTnV0-KeocCuYG-97" value=":Answer" style="shadow=1;fillColor=#A2C4C9;strokeColor=none" vertex="1" parent="1">
          <mxGeometry x="-88.61000000000001" y="285" width="105" height="50" as="geometry" />
        </mxCell>
        <mxCell id="bVLuxsmTnV0-KeocCuYG-98" value="" style="edgeStyle=none;endArrow=none;dashed=1;entryX=0.5;entryY=0;entryDx=0;entryDy=0;" edge="1" parent="1" source="bVLuxsmTnV0-KeocCuYG-11" target="bVLuxsmTnV0-KeocCuYG-97">
          <mxGeometry x="614.4878472222224" y="174.99999999999997" width="100" height="100" as="geometry">
            <mxPoint x="-36" y="-925" as="sourcePoint" />
            <mxPoint x="-34" y="368" as="targetPoint" />
          </mxGeometry>
        </mxCell>
        <mxCell id="bVLuxsmTnV0-KeocCuYG-99" value="" style="fillColor=#CC4125;strokeColor=#660000" vertex="1" parent="1">
          <mxGeometry x="-41.110000000000014" y="-785" width="10" height="60" as="geometry" />
        </mxCell>
        <mxCell id="bVLuxsmTnV0-KeocCuYG-100" value="" style="edgeStyle=none;endArrow=none;dashed=1;exitX=0.5;exitY=1;exitDx=0;exitDy=0;entryX=0.5;entryY=0;entryDx=0;entryDy=0;" edge="1" parent="1" source="bVLuxsmTnV0-KeocCuYG-10" target="bVLuxsmTnV0-KeocCuYG-101">
          <mxGeometry x="272.3350694444445" y="165" width="100" height="100" as="geometry">
            <mxPoint x="-171" y="-925" as="sourcePoint" />
            <mxPoint x="-171" y="366" as="targetPoint" />
          </mxGeometry>
        </mxCell>
        <mxCell id="bVLuxsmTnV0-KeocCuYG-101" value=":AnswerController" style="shadow=1;fillColor=#A2C4C9;strokeColor=none" vertex="1" parent="1">
          <mxGeometry x="-223.4960493827161" y="285" width="105" height="50" as="geometry" />
        </mxCell>
        <mxCell id="bVLuxsmTnV0-KeocCuYG-102" value="" style="edgeStyle=none;endArrow=none;dashed=1;entryX=0.5;entryY=0;entryDx=0;entryDy=0;exitX=0.552;exitY=0.977;exitDx=0;exitDy=0;exitPerimeter=0;" edge="1" parent="1" source="bVLuxsmTnV0-KeocCuYG-6" target="bVLuxsmTnV0-KeocCuYG-103">
          <mxGeometry x="272.3350694444445" y="165" width="100" height="100" as="geometry">
            <mxPoint x="-318" y="-926" as="sourcePoint" />
            <mxPoint x="-318" y="361" as="targetPoint" />
            <Array as="points">
              <mxPoint x="-318" y="-895" />
            </Array>
          </mxGeometry>
        </mxCell>
        <mxCell id="bVLuxsmTnV0-KeocCuYG-103" value=":RiddleController" style="shadow=1;fillColor=#A2C4C9;strokeColor=none" vertex="1" parent="1">
          <mxGeometry x="-371" y="285" width="105" height="50" as="geometry" />
        </mxCell>
        <mxCell id="bVLuxsmTnV0-KeocCuYG-104" value="" style="fillColor=#CC4125;strokeColor=#660000" vertex="1" parent="1">
          <mxGeometry x="-323.5" y="-875" width="10" height="1040" as="geometry" />
        </mxCell>
        <mxCell id="bVLuxsmTnV0-KeocCuYG-105" value=":AnswerRiddleDialog" style="shadow=1;fillColor=#A2C4C9;strokeColor=none" vertex="1" parent="1">
          <mxGeometry x="-546" y="285" width="117.5" height="50" as="geometry" />
        </mxCell>
        <mxCell id="bVLuxsmTnV0-KeocCuYG-106" value="" style="fillColor=#CC4125;strokeColor=#660000" vertex="1" parent="1">
          <mxGeometry x="-176" y="-835" width="10" height="150" as="geometry" />
        </mxCell>
      </root>
    </mxGraphModel>
  </diagram>
</mxfile>
